# xmcd
#
# Track frame offsets:
#	150
#	22218
#	41337
#	58498
#	109433
#	125447
#	144814
#	166353
#	192509
#	212543
#	251543
#
# Disc length: 3739 seconds
#
# Revision: 1
# Processed by: cddbd v1.5.1PL0 Copyright (c) Steve Scherf et al.
# Submitted via: audiograbber 1.83.01
#
DISCID=a30e990b
DTITLE=Hobo Blues Band - Idegen Tollak CD1
DYEAR=2004
DGENRE=Blues
TTITLE0=Indulnod kell
TTITLE1=Star star
TTITLE2=Apró képek
TTITLE3=Vándor az úton
TTITLE4=Miss Maggie M'Gill
TTITLE5=Nekem is fáj
TTITLE6=Leples bitang
TTITLE7=Nagyon fáj
TTITLE8=Adj menedéket
TTITLE9=Halál apa blues
TTITLE10=Kávéház Varsóban
EXTD=
EXTT0=
EXTT1=
EXTT2=
EXTT3=
EXTT4=
EXTT5=
EXTT6=
EXTT7=
EXTT8=
EXTT9=
EXTT10=
PLAYORDER=
